<svg width="60" height="27" viewBox="0 0 60 27" fill="none" xmlns="http://www.w3.org/2000/svg">
<path d="M1.56 19V7.81H1.575L7.26 15.88L6.645 15.76L12.315 7.81H12.345V19H10.905V11.11L10.995 11.845L6.9 17.635H6.87L2.715 11.845L2.97 11.17V19H1.56ZM18.4614 8.155H25.5114V9.55H19.9164V12.85H24.9114V14.245H19.9164V17.605H25.7214V19H18.4614V8.155ZM40.6365 19.345L32.2515 10.84L32.6715 10.945L32.7015 19H31.2465V7.825H31.3215L39.6165 16.36L39.2715 16.285L39.2415 8.155H40.6815V19.345H40.6365ZM48.1052 15.16C48.1052 15.65 48.2202 16.09 48.4502 16.48C48.6902 16.86 49.0052 17.16 49.3952 17.38C49.7852 17.6 50.2252 17.71 50.7152 17.71C51.2252 17.71 51.6802 17.6 52.0802 17.38C52.4802 17.16 52.7952 16.86 53.0252 16.48C53.2552 16.09 53.3702 15.65 53.3702 15.16V8.155H54.7952V15.205C54.7952 15.995 54.6102 16.685 54.2402 17.275C53.8802 17.865 53.3902 18.32 52.7702 18.64C52.1602 18.96 51.4752 19.12 50.7152 19.12C49.9552 19.12 49.2702 18.96 48.6602 18.64C48.0502 18.32 47.5652 17.865 47.2052 17.275C46.8452 16.685 46.6652 15.995 46.6652 15.205V8.155H48.1052V15.16Z" fill="#292E36"/>
</svg>
